<?xml version="1.0" encoding="utf-8"?>
<svg xmlns="http://www.w3.org/2000/svg" xmlns:svg="http://www.w3.org/2000/svg" version="1.1" viewBox="0 0 1400 870">
	<title>The titlepage for the Standard Ebooks edition of The Communist Manifesto, by Karl Marx and Friedrich Engels</title>
	<g>
		<path d="m 605.01389,68.245613 18.33918,0 0,61.754387 17.59064,0 0,-61.754387 18.33918,0 0,-15.438597 -54.269,0 0,15.438597 z"/>
		<path d="m 688.20833,99.029239 24.88889,0 0,30.970761 17.59065,0 0,-77.192984 -17.59065,0 0,30.783626 -24.88889,0 0,-30.783626 -17.59064,0 0,77.192984 17.59064,0 0,-30.970761 z"/>
		<path d="m 791.23612,52.807016 -44.16374,0 0,77.192984 44.16374,0 0,-15.4386 -26.5731,0 0,-15.532161 25.45029,0 0,-15.438597 -25.45029,0 0,-15.345029 26.5731,0 0,-15.438597 z"/>
	</g>
	<g>
		<path d="m 95.970019,214.09357 c -17.68421,0 -25.450292,-12.35088 -25.450292,-22.73685 0,-10.29239 7.766082,-22.64327 25.450292,-22.64327 8.982461,0 15.157891,4.77193 15.157891,4.77193 l 7.48538,-14.97076 c 0,0 -8.60818,-7.11111 -25.356721,-7.11111 -21.894737,0 -41.824562,17.96491 -41.824562,40.14035 0,22.08187 20.023392,39.85965 41.824562,39.85965 16.748541,0 25.356721,-7.11111 25.356721,-7.11111 l -7.48538,-14.97076 c 0,0 -6.17543,4.77193 -15.157891,4.77193 z"/>
		<path d="m 126.79019,191.35672 c 0,22.54971 16.09357,40.04679 38.92398,40.04679 22.17544,0 38.83041,-17.49708 38.83041,-40.04679 0,-22.5497 -17.40351,-39.95321 -38.83041,-39.95321 -21.23977,0 -38.92398,17.40351 -38.92398,39.95321 z m 18.99415,0 c 0,-11.50877 6.36258,-23.01754 19.92983,-23.01754 13.66082,0 19.83626,11.50877 19.83626,23.01754 0,11.50878 -5.80117,23.01755 -19.83626,23.01755 -14.40936,0 -19.92983,-11.50877 -19.92983,-23.01755 z"/>
		<path d="m 281.11914,230 17.59064,0 -6.92397,-77.19298 -18.71345,0 -17.12281,44.53801 -17.12281,-44.53801 -18.71345,0 -6.92398,77.19298 17.59065,0 3.64912,-45.75439 0.46784,0 15.81286,45.28655 10.47953,0 15.81287,-45.28655 0.46784,0 L 281.11914,230 Z"/>
		<path d="m 374.56944,230 17.59064,0 -6.92397,-77.19298 -18.71345,0 -17.12281,44.53801 -17.12281,-44.53801 -18.71345,0 -6.92397,77.19298 17.59064,0 3.64912,-45.75439 0.46784,0 15.81286,45.28655 10.47954,0 15.81286,-45.28655 0.46784,0 L 374.56944,230 Z"/>
		<path d="m 463.5285,152.80702 -17.59064,0 0,44.63158 c 0,12.91228 -3.92983,16.65497 -12.53802,16.65497 -8.60818,0 -12.53801,-3.74269 -12.53801,-16.65497 l 0,-44.63158 -17.59064,0 0,49.77777 c 0,19.08772 10.47953,28.81872 30.12865,28.81872 19.64913,0 30.12866,-9.731 30.12866,-28.81872 l 0,-49.77777 z"/>
		<path d="m 496.60744,182.09357 0.18714,0 30.69006,47.90643 17.59064,0 0,-77.19298 -17.59064,0 0,47.90643 -0.18714,0 -30.69006,-47.90643 -17.59064,0 0,77.19298 17.59064,0 0,-47.90643 z"/>
		<path d="m 578.91008,152.80702 -17.59064,0 0,77.19298 17.59064,0 0,-77.19298 z"/>
		<path d="m 621.81067,151.40351 c -12.44445,0 -25.16959,9.16959 -25.16959,23.57895 0,8.04678 5.4269,15.25146 14.69006,19.83625 9.16959,4.5848 17.40351,7.11111 17.40351,12.72515 0,7.20468 -7.29825,7.57895 -11.13451,7.57895 -8.60818,0 -18.90058,-8.70176 -18.90058,-8.70176 l -8.79532,14.78363 c 0,0 10.94736,10.19883 29.00584,10.19883 15.06433,0 29.09942,-6.45614 29.09942,-24.88889 0,-10.10526 -9.45029,-17.40351 -18.05848,-21.05263 -8.79532,-3.74269 -16.09357,-6.83041 -16.09357,-11.13451 0,-4.21052 3.18129,-6.92397 9.16959,-6.92397 7.95322,0 15.62573,5.33333 15.62573,5.33333 l 7.11112,-14.03509 c 0,0 -9.91813,-7.29824 -23.95322,-7.29824 z"/>
		<path d="m 651.79754,168.24561 18.33918,0 0,61.75439 17.59065,0 0,-61.75439 18.33918,0 0,-15.43859 -54.26901,0 0,15.43859 z"/>
		<path d="m 811.79896,230 17.59065,0 -6.92398,-77.19298 -18.71345,0 -17.12281,44.53801 -17.1228,-44.53801 -18.71346,0 -6.92397,77.19298 17.59064,0 3.64912,-45.75439 0.46784,0 15.81287,45.28655 10.47953,0 15.81286,-45.28655 0.46784,0 L 811.79896,230 Z"/>
		<path d="m 880.64109,152.80702 -16.2807,0 L 833.2025,230 l 18.90058,0 5.7076,-15.4386 29.38012,0 5.7076,15.4386 18.90059,0 -31.1579,-77.19298 z m 0.56141,46.31579 -17.40351,0 8.60819,-22.45614 0.18713,0 8.60819,22.45614 z"/>
		<path d="m 937.30922,182.09357 0.18714,0 30.69006,47.90643 17.59064,0 0,-77.19298 -17.59064,0 0,47.90643 -0.18714,0 -30.69006,-47.90643 -17.59064,0 0,77.19298 17.59064,0 0,-47.90643 z"/>
		<path d="m 1019.6118,152.80702 -17.5906,0 0,77.19298 17.5906,0 0,-77.19298 z"/>
		<path d="m 1080.527,152.80702 -44.6315,0 0,77.19298 17.5906,0 0,-30.97076 24.9825,0 0,-15.4386 -24.9825,0 0,-15.34503 27.0409,0 0,-15.43859 z"/>
		<path d="m 1138.0563,152.80702 -44.1638,0 0,77.19298 44.1638,0 0,-15.4386 -26.5731,0 0,-15.53216 25.4503,0 0,-15.4386 -25.4503,0 0,-15.34503 26.5731,0 0,-15.43859 z"/>
		<path d="m 1181.6133,151.40351 c -12.4444,0 -25.1695,9.16959 -25.1695,23.57895 0,8.04678 5.4269,15.25146 14.69,19.83625 9.1696,4.5848 17.4035,7.11111 17.4035,12.72515 0,7.20468 -7.2982,7.57895 -11.1345,7.57895 -8.6082,0 -18.9006,-8.70176 -18.9006,-8.70176 l -8.7953,14.78363 c 0,0 10.9474,10.19883 29.0059,10.19883 15.0643,0 29.0994,-6.45614 29.0994,-24.88889 0,-10.10526 -9.4503,-17.40351 -18.0585,-21.05263 -8.7953,-3.74269 -16.0936,-6.83041 -16.0936,-11.13451 0,-4.21052 3.1813,-6.92397 9.1696,-6.92397 7.9532,0 15.6257,5.33333 15.6257,5.33333 l 7.1112,-14.03509 c 0,0 -9.9182,-7.29824 -23.9533,-7.29824 z"/>
		<path d="m 1211.6002,168.24561 18.3391,0 0,61.75439 17.5907,0 0,-61.75439 18.3392,0 0,-15.43859 -54.269,0 0,15.43859 z"/>
		<path d="m 1270.818,191.35672 c 0,22.54971 16.0936,40.04679 38.924,40.04679 22.1754,0 38.8304,-17.49708 38.8304,-40.04679 0,-22.5497 -17.4035,-39.95321 -38.8304,-39.95321 -21.2398,0 -38.924,17.40351 -38.924,39.95321 z m 18.9941,0 c 0,-11.50877 6.3626,-23.01754 19.9299,-23.01754 13.6608,0 19.8362,11.50877 19.8362,23.01754 0,11.50878 -5.8011,23.01755 -19.8362,23.01755 -14.4094,0 -19.9299,-11.50877 -19.9299,-23.01755 z"/>
	</g>
	<g>
		<path d="m 513.43366,490 -26.94736,-30.45614 23.29824,-27.4386 -16,0 -19.85965,23.64913 0,-23.64913 -13.19298,0 0,57.89474 13.19298,0 0,-24.5614 21.33334,24.5614 18.17543,0 z"/>
		<path d="m 550.37116,432.10526 -12.21052,0 L 514.79222,490 l 14.17543,0 4.28071,-11.57895 22.03508,0 4.28071,11.57895 14.17543,0 -23.36842,-57.89474 z m 0.42106,34.73685 -13.05264,0 6.45614,-16.84211 0.14036,0 6.45614,16.84211 z"/>
		<path d="m 580.92928,432.10526 0,57.89474 13.19298,0 0,-22.87719 17.68422,22.87719 16.77192,0 -19.92982,-23.92982 c 7.08772,-2.24562 11.85965,-8.07018 11.85965,-16.77193 0,-11.36842 -8.14035,-17.19299 -18.87719,-17.19299 l -20.70176,0 z m 13.19298,25.68421 0,-15.15789 1.54386,0 c 4.98246,0 10.94737,0.35088 10.94737,7.57895 0,7.22807 -5.96491,7.57894 -10.94737,7.57894 l -1.54386,0 z"/>
		<path d="m 649.42379,432.10526 -13.19298,0 0,57.89474 33.12281,0 0,-11.57895 -19.92983,0 0,-46.31579 z"/>
		<path d="m 752.88981,490 13.19298,0 -5.19298,-57.89474 -14.03509,0 -12.84211,33.40351 -12.8421,-33.40351 -14.03509,0 -5.19298,57.89474 13.19298,0 2.73684,-34.31579 0.35088,0 11.85965,33.96491 7.85965,0 11.85965,-33.96491 0.35087,0 L 752.88981,490 Z"/>
		<path d="m 805.77137,432.10526 -12.21052,0 L 770.19243,490 l 14.17544,0 4.2807,-11.57895 22.03508,0 4.28071,11.57895 14.17544,0 -23.36843,-57.89474 z m 0.42106,34.73685 -13.05263,0 6.45614,-16.84211 0.14035,0 6.45614,16.84211 z"/>
		<path d="m 836.32951,432.10526 0,57.89474 13.19298,0 0,-22.87719 L 867.2067,490 l 16.77193,0 -19.92983,-23.92982 c 7.08772,-2.24562 11.85965,-8.07018 11.85965,-16.77193 0,-11.36842 -8.14035,-17.19299 -18.87719,-17.19299 l -20.70175,0 z m 13.19298,25.68421 0,-15.15789 1.54386,0 c 4.98245,0 10.94737,0.35088 10.94737,7.57895 0,7.22807 -5.96492,7.57894 -10.94737,7.57894 l -1.54386,0 z"/>
		<path d="m 945.80646,490 -22.59649,-31.15789 18.94736,-26.73685 -16.42105,0 -10.66666,15.78948 -10.66667,-15.78948 -15.7193,0 18.24561,26.73685 L 885.03453,490 l 16.35087,0 13.68422,-19.7193 13.68421,19.7193 17.05263,0 z"/>
	</g>
	<g>
		<path d="m 358.21601,512.10526 -33.47368,0 0,57.89474 13.19298,0 0,-23.22807 18.73684,0 0,-11.57895 -18.73684,0 0,-11.50877 20.2807,0 0,-11.57895 z"/>
		<path d="m 369.49013,512.10526 0,57.89474 13.19299,0 0,-22.87719 17.68421,22.87719 16.77193,0 -19.92983,-23.92982 c 7.08772,-2.24562 11.85965,-8.07018 11.85965,-16.77193 0,-11.36842 -8.14035,-17.19299 -18.87719,-17.19299 l -20.70176,0 z m 13.19299,25.68421 0,-15.15789 1.54386,0 c 4.98245,0 10.94736,0.35088 10.94736,7.57895 0,7.22807 -5.96491,7.57894 -10.94736,7.57894 l -1.54386,0 z"/>
		<path d="m 437.98465,512.10526 -13.19298,0 0,57.89474 13.19298,0 0,-57.89474 z"/>
		<path d="m 484.57017,512.10526 -33.1228,0 0,57.89474 33.1228,0 0,-11.57895 -19.92982,0 0,-11.64912 19.08772,0 0,-11.57895 -19.08772,0 0,-11.50877 19.92982,0 0,-11.57895 z"/>
		<path d="m 497.15461,512.10526 0,57.89474 16.77192,0 c 15.92983,0 29.19299,-12.07018 29.19299,-28.98246 0,-16.8421 -13.33334,-28.91228 -29.19299,-28.91228 l -16.77192,0 z m 13.19298,46.10527 0,-34.31579 2.03509,0 c 9.82456,0 16.49122,7.50877 16.49122,17.19298 -0.0702,9.68421 -6.73684,17.12281 -16.49122,17.12281 l -2.03509,0 z"/>
		<path d="m 553.96382,512.10526 0,57.89474 13.19299,0 0,-22.87719 17.68421,22.87719 16.77193,0 -19.92983,-23.92982 c 7.08772,-2.24562 11.85965,-8.07018 11.85965,-16.77193 0,-11.36842 -8.14035,-17.19299 -18.87719,-17.19299 l -20.70176,0 z m 13.19299,25.68421 0,-15.15789 1.54386,0 c 4.98245,0 10.94736,0.35088 10.94736,7.57895 0,7.22807 -5.96491,7.57894 -10.94736,7.57894 l -1.54386,0 z"/>
		<path d="m 622.45832,512.10526 -13.19298,0 0,57.89474 13.19298,0 0,-57.89474 z"/>
		<path d="m 664.53509,558.07018 c -13.26315,0 -19.08772,-9.26316 -19.08772,-17.05264 0,-7.71929 5.82457,-16.98245 19.08772,-16.98245 6.73685,0 11.36842,3.57895 11.36842,3.57895 l 5.61404,-11.22807 c 0,0 -6.45614,-5.33334 -19.01754,-5.33334 -16.42106,0 -31.36843,13.47369 -31.36843,30.10527 0,16.5614 15.01755,29.89473 31.36843,29.89473 12.5614,0 19.01754,-5.33333 19.01754,-5.33333 l -5.61404,-11.22807 c 0,0 -4.63157,3.57895 -11.36842,3.57895 z"/>
		<path d="m 704.6897,546.77193 18.66667,0 0,23.22807 13.19298,0 0,-57.89474 -13.19298,0 0,23.08772 -18.66667,0 0,-23.08772 -13.19298,0 0,57.89474 13.19298,0 0,-23.22807 z"/>
		<path d="m 807.39913,512.10526 -33.12281,0 0,57.89474 33.12281,0 0,-11.57895 -19.92982,0 0,-11.64912 19.08772,0 0,-11.57895 -19.08772,0 0,-11.50877 19.92982,0 0,-11.57895 z"/>
		<path d="m 833.17652,534.07018 0.14035,0 23.01755,35.92982 13.19298,0 0,-57.89474 -13.19298,0 0,35.92983 -0.14036,0 -23.01754,-35.92983 -13.19298,0 0,57.89474 13.19298,0 0,-35.92982 z"/>
		<path d="m 935.31141,537.57895 -26.73685,0 0,10.17544 13.33334,0 c 0,7.08772 -6.24562,11.15789 -12.56141,11.15789 -8.14035,0 -14.73684,-8 -14.73684,-17.82456 0,-10.03509 6.59649,-18.10526 14.73684,-18.10526 5.12281,0 9.54386,2.03508 12.91228,7.43859 l 8.63158,-9.47368 c -5.05263,-6.10526 -12.14035,-9.89474 -22.31579,-9.89474 -16.2807,0 -28.21052,13.40351 -28.21052,30.03509 0,16.5614 12.63158,29.96491 28.21052,29.96491 11.36842,0 23.57895,-6.24561 26.73685,-20.91228 l 0,-12.5614 z"/>
		<path d="m 979.33443,512.10526 -33.1228,0 0,57.89474 33.1228,0 0,-11.57895 -19.92982,0 0,-11.64912 19.08772,0 0,-11.57895 -19.08772,0 0,-11.50877 19.92982,0 0,-11.57895 z"/>
		<path d="m 1005.1118,512.10526 -13.19296,0 0,57.89474 33.12276,0 0,-11.57895 -19.9298,0 0,-46.31579 z"/>
		<path d="m 1057.863,511.05263 c -9.3334,0 -18.8772,6.8772 -18.8772,17.68421 0,6.03509 4.0701,11.4386 11.0175,14.8772 6.8772,3.43859 13.0526,5.33333 13.0526,9.54385 0,5.40351 -5.4736,5.68422 -8.3508,5.68422 -6.4562,0 -14.1755,-6.52632 -14.1755,-6.52632 l -6.5965,11.08772 c 0,0 8.2106,7.64912 21.7544,7.64912 11.2983,0 21.8246,-4.8421 21.8246,-18.66666 0,-7.57895 -7.0877,-13.05264 -13.5439,-15.78948 -6.5965,-2.80702 -12.0702,-5.12281 -12.0702,-8.35088 0,-3.15789 2.386,-5.19298 6.8772,-5.19298 5.9649,0 11.7193,4 11.7193,4 l 5.3334,-10.52631 c 0,0 -7.4386,-5.47369 -17.9649,-5.47369 z"/>
	</g>
	<g>
		<path d="m 576.58575,736.75345 -0.58116,2.96809 -7.6174,0 -2.46994,12.61955 q -0.12454,0.7057 -0.18681,1.18309 -0.0623,0.47738 -0.0623,0.74721 0,1.32837 0.78872,1.93029 0.80948,0.60192 2.57372,0.60192 l 3.86059,0 -0.64343,3.1964 -3.65303,0 q -3.40396,0 -5.08518,-1.32837 -1.66047,-1.32838 -1.66047,-4.02664 0,-0.47738 0.0623,-1.03779 0.0623,-0.58116 0.1868,-1.26611 l 2.46995,-12.61955 -3.23792,0 0.60192,-2.96809 3.17565,0 1.28686,-6.60035 3.81908,0 -1.26611,6.60035 7.63815,0 z"/>
		<path d="m 594.24897,740.28195 q -0.58116,-0.31134 -1.32837,-0.47739 -0.74721,-0.16604 -1.5982,-0.16604 -3.05111,0 -5.33425,2.32465 -2.28315,2.3039 -3.03036,6.18524 L 580.61238,760 l -3.81907,0 4.54553,-23.24655 3.81907,0 -0.72645,3.61152 q 1.51518,-2.01332 3.61152,-3.09262 2.11709,-1.0793 4.50401,-1.0793 0.62268,0 1.2246,0.083 0.60192,0.0623 1.20384,0.22831 l -0.72646,3.77757 z"/>
		<path d="M 615.64825,746.73702 613.05377,760 l -3.81908,0 0.7057,-3.52849 q -1.68122,2.07558 -3.83983,3.11337 -2.13785,1.01704 -4.77384,1.01704 -2.96809,0 -4.87763,-1.80576 -1.88878,-1.82651 -1.88878,-4.67006 0,-4.06815 3.23791,-6.43432 3.25867,-2.36616 8.96653,-2.36616 l 5.31349,0 0.20756,-1.01704 q 0.0415,-0.16604 0.0623,-0.35285 0.0208,-0.20756 0.0208,-0.62267 0,-1.84727 -1.51518,-2.86431 -1.49442,-1.03779 -4.21344,-1.03779 -1.86802,0 -3.83983,0.47738 -1.95105,0.47739 -4.02663,1.43216 l 0.66418,-3.5285 q 2.15861,-0.80948 4.21344,-1.20384 2.07559,-0.41511 4.00588,-0.41511 4.10966,0 6.24751,1.785 2.15861,1.785 2.15861,5.18896 0,0.68494 -0.10378,1.61896 -0.10378,0.91325 -0.31134,1.95105 z m -4.13041,1.57744 -3.81908,0 q -4.69082,0 -6.95321,1.26611 -2.24163,1.24535 -2.24163,3.88134 0,1.82651 1.14157,2.86431 1.16233,1.03779 3.1964,1.03779 3.11338,0 5.43803,-2.22088 2.32466,-2.24163 3.07187,-5.97768 l 0.16605,-0.85099 z"/>
		<path d="M 642.56858,745.96905 639.84956,760 l -3.83983,0 2.71902,-13.88566 q 0.1868,-0.97552 0.29058,-1.72273 0.10378,-0.74722 0.10378,-1.18309 0,-1.74349 -1.10006,-2.71901 -1.10006,-0.97553 -3.07187,-0.97553 -3.07186,0 -5.29274,2.05483 -2.22087,2.03407 -2.90581,5.54181 L 624.19966,760 l -3.81908,0 4.50402,-23.24655 3.81907,0 -0.76796,3.65303 q 1.5982,-2.01331 3.83983,-3.11337 2.24163,-1.10006 4.71158,-1.10006 3.07186,0 4.75308,1.66046 1.70198,1.66047 1.70198,4.67007 0,0.74721 -0.10378,1.5982 -0.083,0.85099 -0.26982,1.84727 z"/>
		<path d="m 667.12274,737.4384 -0.72645,3.61151 q -1.51518,-0.83023 -3.1964,-1.24535 -1.68123,-0.41511 -3.46623,-0.41511 -3.0096,0 -4.75309,1.03779 -1.72273,1.01704 -1.72273,2.78128 0,2.05483 4.02663,3.15489 0.31134,0.083 0.45663,0.12454 l 1.2246,0.3736 q 3.81907,1.05855 5.08518,2.22088 1.28686,1.16232 1.28686,3.17564 0,3.69454 -2.94733,6.01919 -2.92657,2.32466 -7.67966,2.32466 -1.84727,0 -3.88135,-0.35285 -2.03407,-0.35285 -4.48326,-1.10006 l 0.74721,-3.94361 q 2.09634,1.0793 4.13042,1.63971 2.03407,0.56041 3.90209,0.56041 2.80204,0 4.54553,-1.20384 1.76425,-1.20384 1.76425,-3.05111 0,-1.99256 -4.6078,-3.21715 l -0.39436,-0.10378 -1.30762,-0.3321 q -2.90581,-0.76796 -4.25494,-2.01331 -1.34913,-1.26611 -1.34913,-3.21716 0,-3.7153 2.78128,-5.89466 2.80204,-2.17936 7.59664,-2.17936 1.88878,0 3.67378,0.31133 1.80576,0.31134 3.54925,0.93402 z"/>
		<path d="m 675.81944,727.70391 3.81908,0 L 673.3495,760 l -3.81908,0 6.28902,-32.29609 z"/>
		<path d="M 702.65674,746.73702 700.06226,760 l -3.81907,0 0.7057,-3.52849 q -1.68123,2.07558 -3.83983,3.11337 -2.13786,1.01704 -4.77385,1.01704 -2.96808,0 -4.87762,-1.80576 -1.88878,-1.82651 -1.88878,-4.67006 0,-4.06815 3.23791,-6.43432 3.25867,-2.36616 8.96652,-2.36616 l 5.3135,0 0.20756,-1.01704 q 0.0415,-0.16604 0.0623,-0.35285 0.0208,-0.20756 0.0208,-0.62267 0,-1.84727 -1.51518,-2.86431 -1.49442,-1.03779 -4.21343,-1.03779 -1.86803,0 -3.83983,0.47738 -1.95105,0.47739 -4.02664,1.43216 l 0.66419,-3.5285 q 2.15861,-0.80948 4.21344,-1.20384 2.07558,-0.41511 4.00587,-0.41511 4.10966,0 6.24751,1.785 2.15861,1.785 2.15861,5.18896 0,0.68494 -0.10378,1.61896 -0.10378,0.91325 -0.31134,1.95105 z m -4.13041,1.57744 -3.81907,0 q -4.69082,0 -6.95321,1.26611 -2.24163,1.24535 -2.24163,3.88134 0,1.82651 1.14157,2.86431 1.16233,1.03779 3.1964,1.03779 3.11338,0 5.43803,-2.22088 2.32465,-2.24163 3.07186,-5.97768 l 0.16605,-0.85099 z"/>
		<path d="m 723.86921,736.75345 -0.58116,2.96809 -7.6174,0 -2.46994,12.61955 q -0.12454,0.7057 -0.1868,1.18309 -0.0623,0.47738 -0.0623,0.74721 0,1.32837 0.78872,1.93029 0.80948,0.60192 2.57373,0.60192 l 3.86058,0 -0.64343,3.1964 -3.65303,0 q -3.40396,0 -5.08518,-1.32837 -1.66047,-1.32838 -1.66047,-4.02664 0,-0.47738 0.0623,-1.03779 0.0623,-0.58116 0.1868,-1.26611 l 2.46995,-12.61955 -3.23791,0 0.60192,-2.96809 3.17564,0 1.28686,-6.60035 3.81908,0 -1.26611,6.60035 7.63815,0 z"/>
		<path d="m 743.02686,746.30114 q 0.0623,-0.33209 0.083,-0.68494 0.0415,-0.35285 0.0415,-0.7057 0,-2.53221 -1.49442,-4.00588 -1.47366,-1.47366 -4.02663,-1.47366 -2.84355,0 -5.02292,1.80576 -2.17936,1.785 -3.30018,5.08518 l 13.71962,-0.0208 z m 3.32093,2.98884 -17.767,0 q -0.12454,0.78873 -0.16605,1.24536 -0.0415,0.45662 -0.0415,0.78872 0,2.88506 1.76425,4.4625 1.785,1.57745 5.02291,1.57745 2.4907,0 4.71158,-0.56041 2.22087,-0.56041 4.13041,-1.63971 l -0.72645,3.77756 q -2.05483,0.83024 -4.25495,1.24535 -2.17936,0.41512 -4.44175,0.41512 -4.83611,0 -7.45135,-2.3039 -2.59448,-2.32465 -2.59448,-6.5796 0,-3.63227 1.28686,-6.74565 1.30762,-3.13413 3.81908,-5.58332 1.61895,-1.53594 3.83983,-2.36617 2.24163,-0.83023 4.75309,-0.83023 3.94361,0 6.26826,2.36616 2.34541,2.36617 2.34541,6.35129 0,0.95477 -0.12453,2.05483 -0.12454,1.0793 -0.37361,2.32465 z"/>
		<path d="m 766.50173,756.51302 q -1.53594,2.01332 -3.63228,3.05111 -2.09634,1.03779 -4.6493,1.03779 -3.48699,0 -5.52106,-2.36617 -2.01332,-2.38692 -2.01332,-6.51733 0,-3.44547 1.2246,-6.55885 1.22459,-3.13413 3.54925,-5.60408 1.53593,-1.63971 3.46622,-2.4907 1.9303,-0.87174 4.04739,-0.87174 2.24163,0 3.94361,1.0793 1.72274,1.0793 2.65675,3.09262 l 2.4907,-12.66106 3.83983,0 L 769.6151,760 l -3.83983,0 0.72646,-3.48698 z m -11.85159,-5.47954 q 0,3.00959 1.34913,4.69082 1.36989,1.68122 3.77756,1.68122 1.78501,0 3.30018,-0.85099 1.53594,-0.87175 2.69826,-2.55297 1.2246,-1.74349 1.9303,-4.02663 0.70569,-2.28315 0.70569,-4.50402 0,-2.88506 -1.36988,-4.50402 -1.34913,-1.61895 -3.73605,-1.61895 -1.80576,0 -3.36245,0.85098 -1.55669,0.85099 -2.65675,2.44919 -1.20384,1.72274 -1.93029,4.00588 -0.7057,2.28315 -0.7057,4.37949 z"/>
		<path d="m 810.29655,745.803 q 0,-3.00959 -1.39064,-4.71157 -1.36989,-1.70198 -3.79832,-1.70198 -1.76425,0 -3.32094,0.87174 -1.53593,0.85099 -2.6775,2.4907 -1.20384,1.72274 -1.90954,4.00588 -0.68494,2.26239 -0.68494,4.52478 0,2.8643 1.34913,4.50401 1.36988,1.61896 3.7568,1.61896 1.80576,0 3.34169,-0.83023 1.53594,-0.85099 2.69826,-2.49071 1.18309,-1.70197 1.90954,-3.96436 0.72646,-2.26239 0.72646,-4.31722 z m -11.87235,-5.52105 q 1.4114,-1.90954 3.5285,-2.98884 2.13785,-1.10006 4.4625,-1.10006 3.57001,0 5.66635,2.40767 2.1171,2.40768 2.1171,6.51734 0,3.36245 -1.24536,6.51733 -1.22459,3.15489 -3.50773,5.60408 -1.49442,1.61896 -3.44547,2.4907 -1.95105,0.87175 -4.0889,0.87175 -2.26239,0 -3.92286,-1.03779 -1.66047,-1.03779 -2.69826,-3.09262 L 794.60513,760 l -3.81908,0 6.28902,-32.29609 3.81908,0 -2.46995,12.57804 z"/>
		<path d="m 826.77668,762.15861 q -2.65675,4.4625 -4.33797,5.56256 -1.66047,1.12082 -4.25495,1.12082 l -3.0096,0 0.64343,-3.1964 2.20012,0 q 1.5982,0 2.71902,-0.87175 1.12081,-0.87174 2.51146,-3.40395 l 1.18308,-2.22088 -5.14745,-22.39556 4.04739,0 3.86059,17.80852 10.6685,-17.80852 4.00588,0 -15.0895,25.40516 z"/>
	</g>
	<g>
		<path d="m 489.28253,780.70175 c -6.22223,0 -12.5848,4.5848 -12.5848,11.78948 0,4.02339 2.71345,7.62573 7.34503,9.91813 4.5848,2.29239 8.70175,3.55555 8.70175,6.36257 0,3.60234 -3.64912,3.78947 -5.56725,3.78947 -4.30409,0 -9.45029,-4.35087 -9.45029,-4.35087 l -4.39766,7.39181 c 0,0 5.47368,5.09941 14.50292,5.09941 7.53217,0 14.54971,-3.22807 14.54971,-12.44444 0,-5.05263 -4.72514,-8.70175 -9.02924,-10.52632 -4.39766,-1.87134 -8.04678,-3.4152 -8.04678,-5.56725 0,-2.10526 1.59064,-3.46199 4.58479,-3.46199 3.97661,0 7.81287,2.66667 7.81287,2.66667 l 3.55555,-7.01754 c 0,0 -4.95906,-3.64913 -11.9766,-3.64913 z"/>
		<path d="m 531.09539,781.40351 -8.14035,0 L 507.37609,820 l 9.45029,0 2.85381,-7.7193 14.69005,0 2.85381,7.7193 9.45029,0 -15.57895,-38.59649 z m 0.2807,23.15789 -8.70175,0 4.30409,-11.22807 0.0936,0 4.30409,11.22807 z"/>
		<path d="m 585.04057,820 8.79532,0 -3.46199,-38.59649 -9.35673,0 -8.5614,22.269 -8.5614,-22.269 -9.35673,0 -3.46199,38.59649 8.79533,0 1.82456,-22.87719 0.23391,0 7.90644,22.64327 5.23976,0 7.90644,-22.64327 0.23392,0 L 585.04057,820 Z"/>
		<path d="m 632.0201,781.40351 -8.79532,0 0,22.31579 c 0,6.45614 -1.96491,8.32748 -6.269,8.32748 -4.3041,0 -6.26901,-1.87134 -6.26901,-8.32748 l 0,-22.31579 -8.79532,0 0,24.88889 c 0,9.54386 5.23976,14.40935 15.06433,14.40935 9.82456,0 15.06432,-4.86549 15.06432,-14.40935 l 0,-24.88889 z"/>
		<path d="m 664.34612,781.40351 -22.08187,0 0,38.59649 22.08187,0 0,-7.7193 -13.28655,0 0,-7.76608 12.72515,0 0,-7.7193 -12.72515,0 0,-7.67251 13.28655,0 0,-7.7193 z"/>
		<path d="m 683.19773,781.40351 -8.79532,0 0,38.59649 22.08187,0 0,-7.7193 -13.28655,0 0,-30.87719 z"/>
		<path d="m 755.50841,820 8.79532,0 -3.46199,-38.59649 -9.35672,0 -8.56141,22.269 -8.5614,-22.269 -9.35673,0 L 721.5435,820 l 8.79532,0 1.82456,-22.87719 0.23392,0 7.90643,22.64327 5.23977,0 7.90643,-22.64327 0.23392,0 L 755.50841,820 Z"/>
		<path d="m 771.09612,800.67836 c 0,11.27486 8.04679,20.02339 19.46199,20.02339 11.08772,0 19.41521,-8.74853 19.41521,-20.02339 0,-11.27485 -8.70176,-19.97661 -19.41521,-19.97661 -10.61988,0 -19.46199,8.70176 -19.46199,19.97661 z m 9.49708,0 c 0,-5.75438 3.18129,-11.50877 9.96491,-11.50877 6.83041,0 9.91813,5.75439 9.91813,11.50877 0,5.75439 -2.90058,11.50877 -9.91813,11.50877 -7.20468,0 -9.96491,-5.75438 -9.96491,-11.50877 z"/>
		<path d="m 817.12316,800.67836 c 0,11.27486 8.04679,20.02339 19.46199,20.02339 11.08772,0 19.41521,-8.74853 19.41521,-20.02339 0,-11.27485 -8.70176,-19.97661 -19.41521,-19.97661 -10.61988,0 -19.46199,8.70176 -19.46199,19.97661 z m 9.49708,0 c 0,-5.75438 3.18129,-11.50877 9.96491,-11.50877 6.83041,0 9.91813,5.75439 9.91813,11.50877 0,5.75439 -2.90058,11.50877 -9.91813,11.50877 -7.20468,0 -9.96491,-5.75438 -9.96491,-11.50877 z"/>
		<path d="m 864.88123,781.40351 0,38.59649 8.79532,0 0,-15.25146 11.78947,15.25146 11.18129,0 -13.28655,-15.95322 c 4.72515,-1.49707 7.90643,-5.38011 7.90643,-11.18128 0,-7.57895 -5.4269,-11.46199 -12.58479,-11.46199 l -13.80117,0 z m 8.79532,17.12281 0,-10.10527 1.02924,0 c 3.32164,0 7.29824,0.23392 7.29824,5.05263 0,4.81872 -3.9766,5.05264 -7.29824,5.05264 l -1.02924,0 z"/>
		<path d="m 925.49743,781.40351 -22.08187,0 0,38.59649 22.08187,0 0,-7.7193 -13.28655,0 0,-7.76608 12.72515,0 0,-7.7193 -12.72515,0 0,-7.67251 13.28655,0 0,-7.7193 z"/>
	</g>
</svg>
