<?xml version="1.0" encoding="utf-8"?>
<svg xmlns="http://www.w3.org/2000/svg" xmlns:svg="http://www.w3.org/2000/svg" version="1.1" viewBox="0 0 1400 1050">
	<title>The titlepage for the Standard Ebooks edition of The Communist Manifesto</title>
	<g>
		<path d="m 20.474404,68.245613 18.339182,0 0,61.754387 17.590643,0 0,-61.754387 18.339182,0 0,-15.438597 -54.269007,0 0,15.438597 z"/>
		<path d="m 86.078205,130 16.561405,0 0,-27.1345 c 0,-4.771933 4.8655,-9.356729 9.82456,-9.356729 5.33333,0 8.60819,4.584796 8.60819,9.356729 l 0,27.1345 16.5614,0 0,-31.625732 c 0,-13.380117 -12.25731,-17.777778 -21.05263,-17.777778 -5.23977,0 -10.0117,2.713451 -13.75439,6.456141 l -0.18713,0 0,-37.520469 -16.561405,0 0,80.467838 z"/>
		<path d="m 201.59137,108.2924 c 0.0936,-0.56141 0.0936,-1.59065 0.0936,-2.24562 0,-16.842102 -11.13451,-25.45029 -25.731,-25.45029 -14.50292,0 -26.38596,11.415205 -26.38596,25.45029 0,13.94152 11.88304,25.35673 26.38596,25.35673 10.66667,0 19.46199,-3.46199 24.88889,-12.53801 l -11.97661,-5.98831 c -4.02339,4.3041 -6.36257,5.33334 -11.6959,5.33334 -4.21053,0 -10.38597,-2.52632 -10.38597,-9.91813 l 34.80702,0 z m -34.33918,-9.169594 c 0.2807,-4.39766 3.46199,-7.766082 9.16959,-7.766082 4.8655,0 8.32748,2.713451 9.07602,7.766082 l -18.24561,0 z"/>
		<path d="m 283.2361,114.09357 c -17.68421,0 -25.45029,-12.35088 -25.45029,-22.736846 0,-10.292397 7.76608,-22.643275 25.45029,-22.643275 8.98246,0 15.1579,4.77193 15.1579,4.77193 l 7.48538,-14.97076 c 0,0 -8.60819,-7.111112 -25.35673,-7.111112 -21.89474,0 -41.82456,17.964913 -41.82456,40.140352 0,22.081871 20.02339,39.859651 41.82456,39.859651 16.74854,0 25.35673,-7.11111 25.35673,-7.11111 L 298.394,109.32164 c 0,0 -6.17544,4.77193 -15.1579,4.77193 z"/>
		<path d="m 314.05629,106.04678 c 0,14.78363 11.60234,25.35673 28.91228,25.35673 16.5614,0 28.63158,-10.5731 28.63158,-25.35673 0,-14.970757 -12.72515,-25.45029 -28.63158,-25.45029 -16.18714,0 -28.91228,10.479533 -28.91228,25.45029 z m 17.59064,0 c 0,-6.643272 4.95907,-11.321634 11.22807,-11.321634 6.17544,0 11.13451,4.678362 11.13451,11.321634 0,6.54971 -4.67837,11.22807 -11.13451,11.22807 -6.73684,0 -11.22807,-4.67836 -11.22807,-11.22807 z"/>
		<path d="m 384.28729,130 16.5614,0 0,-28.07018 c 0,-3.836253 2.15205,-8.04678 7.67252,-8.04678 5.89473,0 8.42105,4.210527 8.42105,8.98246 l 0,27.1345 16.5614,0 0,-28.63158 c 0.18714,-3.649122 2.43275,-7.48538 7.67252,-7.48538 5.89474,0 8.42105,4.210527 8.42105,8.98246 l 0,27.1345 16.56141,0 0,-31.625732 c 0,-13.380117 -9.91813,-17.777778 -18.71346,-17.777778 -5.23976,0 -10.8538,2.713451 -15.90643,8.795322 -3.36842,-6.45614 -10.38596,-8.795322 -16.74854,-8.795322 -5.23976,0 -10.01169,2.713451 -13.75438,6.456141 l -0.18714,0 0,-5.052632 -16.5614,0 0,48.000001 z"/>
		<path d="m 481.57528,130 16.56141,0 0,-28.07018 c 0,-3.836253 2.15204,-8.04678 7.67251,-8.04678 5.89474,0 8.42105,4.210527 8.42105,8.98246 l 0,27.1345 16.56141,0 0,-28.63158 c 0.18713,-3.649122 2.43275,-7.48538 7.67251,-7.48538 5.89474,0 8.42106,4.210527 8.42106,8.98246 l 0,27.1345 16.5614,0 0,-31.625732 c 0,-13.380117 -9.91813,-17.777778 -18.71345,-17.777778 -5.23977,0 -10.8538,2.713451 -15.90643,8.795322 -3.36842,-6.45614 -10.38597,-8.795322 -16.74854,-8.795322 -5.23977,0 -10.0117,2.713451 -13.75439,6.456141 l -0.18713,0 0,-5.052632 -16.56141,0 0,48.000001 z"/>
		<path d="m 594.48901,81.999999 -16.5614,0 0,26.853801 c 0,16.09357 8.04678,22.54971 26.01169,22.54971 17.96491,0 26.0117,-6.45614 26.0117,-22.54971 l 0,-26.853801 -16.56141,0 0,22.830411 c 0,9.45029 -2.52631,13.09941 -9.45029,13.09941 -6.92398,0 -9.45029,-3.64912 -9.45029,-13.09941 l 0,-22.830411 z"/>
		<path d="m 645.44952,130 16.5614,0 0,-27.1345 c 0,-4.771933 4.8655,-9.356729 9.82457,-9.356729 5.33333,0 8.60818,4.584796 8.60818,9.356729 l 0,27.1345 16.56141,0 0,-31.625732 c 0,-13.380117 -12.25731,-17.777778 -21.05263,-17.777778 -5.23977,0 -10.0117,2.713451 -13.75439,6.456141 l -0.18714,0 0,-5.052632 -16.5614,0 0,48.000001 z"/>
		<path d="m 720.91592,52.33918 c -5.4269,0 -9.82456,4.397661 -9.82456,9.824561 0,5.426901 4.39766,9.824562 9.82456,9.824562 5.4269,0 9.82456,-4.397661 9.82456,-9.824562 0,-5.4269 -4.39766,-9.824561 -9.82456,-9.824561 z m -8.51462,29.660819 16.56141,0 0,48.000001 -16.56141,0 0,-48.000001 z"/>
		<path d="m 766.59285,80.59649 c -12.63158,0 -20.95906,5.614036 -20.95906,15.438597 0,7.204683 4.86549,10.573103 9.73099,13.099413 5.4269,2.80702 10.66667,3.08772 10.66667,6.54971 0,3.18129 -2.80702,3.46199 -5.1462,3.46199 -5.33334,0 -11.88304,-5.52047 -11.88304,-5.52047 l -6.73685,11.32164 c 0,0 6.92398,6.45614 18.52632,6.45614 9.82456,0 22.73684,-2.24562 22.73684,-16.37427 0,-9.82456 -8.23392,-13.38012 -14.59649,-15.34503 -4.11696,-1.309942 -7.48538,-2.05848 -7.48538,-4.584795 0,-2.245614 1.49708,-2.900585 5.1462,-2.900585 5.05263,0 10.66667,2.994152 10.66667,2.994152 l 5.4269,-10.853802 c 0,0 -6.83041,-3.74269 -16.09357,-3.74269 z"/>
		<path d="m 798.49049,81.999999 -6.92398,0 0,12.631579 6.92398,0 0,18.432752 c 0,8.51462 3.18128,18.33918 16.37427,18.33918 6.8304,0 12.16374,-2.99415 12.16374,-2.99415 l -4.11696,-13.38012 c 0,0 -1.96491,1.49708 -4.11696,1.49708 -2.61988,0 -3.74269,-2.15205 -3.74269,-6.64328 l 0,-15.251462 10.10526,0 0,-12.631579 -10.10526,0 0,-17.871345 -16.5614,0 0,17.871345 z"/>
		<path d="m 931.99633,130 17.59065,0 -6.92398,-77.192984 -18.71345,0 -17.12281,44.538013 -17.1228,-44.538013 -18.71345,0 L 864.06651,130 l 17.59064,0 3.64913,-45.754387 0.46783,0 15.81287,45.286547 10.47953,0 15.81287,-45.286547 0.46783,0 L 931.99633,130 Z"/>
		<path d="m 958.1718,106.04678 c 0,14.03509 9.82456,25.35673 23.85965,25.35673 6.5497,0 12.16374,-2.90059 15.7193,-6.83041 l 0.18713,0 0,5.4269 16.37422,0 0,-48.000001 -16.56135,0 0,4.584796 c -3.92983,-3.836258 -9.26316,-5.988305 -15.7193,-5.988305 -14.03509,0 -23.85965,11.415205 -23.85965,25.45029 z m 17.59064,0 c 0,-6.643272 4.95907,-11.321634 11.22807,-11.321634 6.17544,0 11.1345,4.678362 11.1345,11.321634 0,6.54971 -4.67836,11.22807 -11.1345,11.22807 -6.73684,0 -11.22807,-4.67836 -11.22807,-11.22807 z"/>
		<path d="m 1030.5958,130 16.5614,0 0,-27.1345 c 0,-4.771933 4.8655,-9.356729 9.8245,-9.356729 5.3334,0 8.6082,4.584796 8.6082,9.356729 l 0,27.1345 16.5614,0 0,-31.625732 c 0,-13.380117 -12.2573,-17.777778 -21.0526,-17.777778 -5.2398,0 -10.0117,2.713451 -13.7544,6.456141 l -0.1871,0 0,-5.052632 -16.5614,0 0,48.000001 z"/>
		<path d="m 1106.0622,52.33918 c -5.4269,0 -9.8246,4.397661 -9.8246,9.824561 0,5.426901 4.3977,9.824562 9.8246,9.824562 5.4269,0 9.8245,-4.397661 9.8245,-9.824562 0,-5.4269 -4.3976,-9.824561 -9.8245,-9.824561 z m -8.5147,29.660819 16.5614,0 0,48.000001 -16.5614,0 0,-48.000001 z"/>
		<path d="m 1133.6806,81.999999 -6.924,0 0,12.631579 6.924,0 0,35.368422 16.5614,0 0,-35.368422 11.041,0 0,-12.631579 -11.041,0 0,-9.730994 c 0,-6.643275 0.9357,-9.450293 5.1462,-9.450293 2.7135,0 4.9591,1.309942 4.9591,1.309942 l 5.8011,-11.695907 c 0,0 -5.2397,-4.304093 -13.6608,-4.304093 -11.9766,0 -18.7134,9.637427 -18.807,23.672515 l 0,10.19883 z"/>
		<path d="m 1219.5226,108.2924 c 0.094,-0.56141 0.094,-1.59065 0.094,-2.24562 0,-16.842102 -11.1345,-25.45029 -25.731,-25.45029 -14.5029,0 -26.3859,11.415205 -26.3859,25.45029 0,13.94152 11.883,25.35673 26.3859,25.35673 10.6667,0 19.462,-3.46199 24.8889,-12.53801 l -11.9766,-5.98831 c -4.0234,4.3041 -6.3626,5.33334 -11.6959,5.33334 -4.2105,0 -10.386,-2.52632 -10.386,-9.91813 l 34.807,0 z m -34.3391,-9.169594 c 0.2807,-4.39766 3.462,-7.766082 9.1696,-7.766082 4.8654,0 8.3274,2.713451 9.076,7.766082 l -18.2456,0 z"/>
		<path d="m 1252.9305,80.59649 c -12.6316,0 -20.9591,5.614036 -20.9591,15.438597 0,7.204683 4.8655,10.573103 9.731,13.099413 5.4269,2.80702 10.6667,3.08772 10.6667,6.54971 0,3.18129 -2.807,3.46199 -5.1462,3.46199 -5.3333,0 -11.883,-5.52047 -11.883,-5.52047 l -6.7369,11.32164 c 0,0 6.924,6.45614 18.5263,6.45614 9.8246,0 22.7369,-2.24562 22.7369,-16.37427 0,-9.82456 -8.2339,-13.38012 -14.5965,-15.34503 -4.117,-1.309942 -7.4854,-2.05848 -7.4854,-4.584795 0,-2.245614 1.4971,-2.900585 5.1462,-2.900585 5.0526,0 10.6667,2.994152 10.6667,2.994152 l 5.4269,-10.853802 c 0,0 -6.8304,-3.74269 -16.0936,-3.74269 z"/>
		<path d="m 1284.8282,81.999999 -6.924,0 0,12.631579 6.924,0 0,18.432752 c 0,8.51462 3.1813,18.33918 16.3743,18.33918 6.8304,0 12.1637,-2.99415 12.1637,-2.99415 l -4.117,-13.38012 c 0,0 -1.9649,1.49708 -4.1169,1.49708 -2.6199,0 -3.7427,-2.15205 -3.7427,-6.64328 l 0,-15.251462 10.1053,0 0,-12.631579 -10.1053,0 0,-17.871345 -16.5614,0 0,17.871345 z"/>
		<path d="m 1320.4745,106.04678 c 0,14.78363 11.6023,25.35673 28.9123,25.35673 16.5614,0 28.6315,-10.5731 28.6315,-25.35673 0,-14.970757 -12.7251,-25.45029 -28.6315,-25.45029 -16.1872,0 -28.9123,10.479533 -28.9123,25.45029 z m 17.5906,0 c 0,-6.643272 4.9591,-11.321634 11.2281,-11.321634 6.1754,0 11.1345,4.678362 11.1345,11.321634 0,6.54971 -4.6784,11.22807 -11.1345,11.22807 -6.7369,0 -11.2281,-4.67836 -11.2281,-11.22807 z"/>
	</g>
	<g>
		<path d="m 551.05702,490 -26.94737,-30.45614 23.29825,-27.4386 -16,0 -19.85965,23.64913 0,-23.64913 -13.19299,0 0,57.89474 13.19299,0 0,-24.5614 21.33333,24.5614 18.17544,0 z"/>
		<path d="m 553.9386,472.03509 c 0,10.52631 7.36842,19.01754 17.89474,19.01754 4.91228,0 9.1228,-2.17544 11.78947,-5.12281 l 0.14035,0 0,4.07018 12.2807,0 0,-36 -12.42105,0 0,3.4386 c -2.94737,-2.8772 -6.94737,-4.49123 -11.78947,-4.49123 -10.52632,0 -17.89474,8.5614 -17.89474,19.08772 z m 13.19298,0 c 0,-4.98246 3.7193,-8.49123 8.42105,-8.49123 4.63158,0 8.35088,3.50877 8.35088,8.49123 0,4.91228 -3.50877,8.42105 -8.35088,8.42105 -5.05263,0 -8.42105,-3.50877 -8.42105,-8.42105 z"/>
		<path d="m 609.50658,490 12.42105,0 0,-18.94737 c 0,-0.91228 0.91228,-7.29824 7.36842,-7.29824 4.14035,0 6.45614,1.96491 6.45614,1.96491 l 5.19298,-10.52632 c 0,0 -3.22807,-2.24561 -7.85964,-2.24561 -7.08772,0 -11.01755,6.24561 -11.01755,6.24561 l -0.14035,0 0,-5.19298 -12.42105,0 0,36 z"/>
		<path d="m 649.59429,490 12.42106,0 0,-60.35088 -12.42106,0 0,60.35088 z"/>
		<path d="m 747.61294,490 13.19298,0 -5.19298,-57.89474 -14.03509,0 -12.8421,33.40351 -12.84211,-33.40351 -14.03509,0 -5.19298,57.89474 13.19298,0 2.73685,-34.31579 0.35087,0 11.85965,33.96491 7.85965,0 11.85965,-33.96491 0.35088,0 L 747.61294,490 Z"/>
		<path d="m 768.49452,472.03509 c 0,10.52631 7.36842,19.01754 17.89474,19.01754 4.91228,0 9.12281,-2.17544 11.78947,-5.12281 l 0.14035,0 0,4.07018 12.2807,0 0,-36 -12.42105,0 0,3.4386 c -2.94737,-2.8772 -6.94737,-4.49123 -11.78947,-4.49123 -10.52632,0 -17.89474,8.5614 -17.89474,19.08772 z m 13.19298,0 c 0,-4.98246 3.7193,-8.49123 8.42106,-8.49123 4.63158,0 8.35087,3.50877 8.35087,8.49123 0,4.91228 -3.50877,8.42105 -8.35087,8.42105 -5.05263,0 -8.42106,-3.50877 -8.42106,-8.42105 z"/>
		<path d="m 824.06248,490 12.42105,0 0,-18.94737 c 0,-0.91228 0.91228,-7.29824 7.36842,-7.29824 4.14035,0 6.45614,1.96491 6.45614,1.96491 l 5.19299,-10.52632 c 0,0 -3.22807,-2.24561 -7.85965,-2.24561 -7.08772,0 -11.01755,6.24561 -11.01755,6.24561 l -0.14035,0 0,-5.19298 -12.42105,0 0,36 z"/>
		<path d="M 905.83443,490 890.46601,471.19298 903.65899,454 l -14.52632,0 -6.24561,8.35088 L 876.64145,454 862.11513,454 875.30811,471.19298 859.93969,490 l 15.01754,0 7.92983,-10.17544 7.92982,10.17544 15.01755,0 z"/>
	</g>
	<g>
		<path d="m 412.56086,512.10526 -33.47369,0 0,57.89474 13.19299,0 0,-23.22807 18.73684,0 0,-11.57895 -18.73684,0 0,-11.50877 20.2807,0 0,-11.57895 z"/>
		<path d="m 423.83498,570 12.42105,0 0,-18.94737 c 0,-0.91228 0.91228,-7.29824 7.36842,-7.29824 4.14035,0 6.45614,1.96491 6.45614,1.96491 l 5.19299,-10.52632 c 0,0 -3.22807,-2.24561 -7.85965,-2.24561 -7.08772,0 -11.01755,6.24561 -11.01755,6.24561 l -0.14035,0 0,-5.19298 -12.42105,0 0,36 z"/>
		<path d="m 470.30866,511.75439 c -4.07017,0 -7.36842,3.29824 -7.36842,7.36842 0,4.07017 3.29825,7.36842 7.36842,7.36842 4.07018,0 7.36843,-3.29825 7.36843,-7.36842 0,-4.07018 -3.29825,-7.36842 -7.36843,-7.36842 z M 463.9227,534 l 12.42105,0 0,36 -12.42105,0 0,-36 z"/>
		<path d="m 526.58827,553.7193 c 0.0702,-0.42105 0.0702,-1.19298 0.0702,-1.68421 0,-12.63158 -8.35088,-19.08772 -19.29825,-19.08772 -10.87719,0 -19.78947,8.5614 -19.78947,19.08772 0,10.45614 8.91228,19.01754 19.78947,19.01754 8,0 14.59649,-2.59649 18.66667,-9.40351 l -8.98246,-4.49123 c -3.01754,3.22808 -4.77193,4 -8.77193,4 -3.15789,0 -7.78947,-1.89473 -7.78947,-7.43859 l 26.10526,0 z m -25.75438,-6.87719 c 0.21052,-3.29825 2.59649,-5.82457 6.87719,-5.82457 3.64912,0 6.24561,2.03509 6.80702,5.82457 l -13.68421,0 z"/>
		<path d="m 534.9227,552.03509 c 0,10.52631 7.36843,19.01754 17.89474,19.01754 4.91228,0 9.12281,-2.17544 11.78947,-5.12281 l 0.14036,0 0,4.07018 12.2807,0 0,-60.35088 -12.42106,0 0,27.78948 c -2.94736,-2.8772 -6.94736,-4.49123 -11.78947,-4.49123 -10.52631,0 -17.89474,8.5614 -17.89474,19.08772 z m 13.19299,0 c 0,-4.98246 3.7193,-8.49123 8.42105,-8.49123 4.63158,0 8.35088,3.50877 8.35088,8.49123 0,4.91228 -3.50878,8.42105 -8.35088,8.42105 -5.05263,0 -8.42105,-3.50877 -8.42105,-8.42105 z"/>
		<path d="m 590.49068,570 12.42105,0 0,-18.94737 c 0,-0.91228 0.91228,-7.29824 7.36842,-7.29824 4.14035,0 6.45614,1.96491 6.45614,1.96491 l 5.19298,-10.52632 c 0,0 -3.22807,-2.24561 -7.85965,-2.24561 -7.08771,0 -11.01754,6.24561 -11.01754,6.24561 l -0.14035,0 0,-5.19298 -12.42105,0 0,36 z"/>
		<path d="m 636.96436,511.75439 c -4.07017,0 -7.36842,3.29824 -7.36842,7.36842 0,4.07017 3.29825,7.36842 7.36842,7.36842 4.07018,0 7.36843,-3.29825 7.36843,-7.36842 0,-4.07018 -3.29825,-7.36842 -7.36843,-7.36842 z M 630.5784,534 l 12.42105,0 0,36 -12.42105,0 0,-36 z"/>
		<path d="m 675.98082,543.12281 c 3.71929,0 6.03508,1.68421 6.03508,1.68421 l 4.21053,-8.49123 c 0,0 -4.07017,-3.36842 -12.07017,-3.36842 -10.45615,0 -19.92983,8.5614 -19.92983,19.15789 0,10.52632 9.54386,18.94737 19.92983,18.94737 8,0 12.07017,-3.22807 12.07017,-3.22807 l -4.21053,-8.63158 c 0,0 -2.31579,1.68421 -6.03508,1.68421 -4.70176,0 -8.56141,-3.92982 -8.56141,-8.91228 0,-4.91228 3.85965,-8.8421 8.56141,-8.8421 z"/>
		<path d="m 696.36238,570 12.42105,0 0,-20.35088 c 0,-3.57894 3.64913,-7.01754 7.36842,-7.01754 4,0 6.45615,3.4386 6.45615,7.01754 l 0,20.35088 12.42105,0 0,-23.7193 c 0,-10.03509 -9.19298,-13.33333 -15.78948,-13.33333 -3.92982,0 -7.50877,2.03509 -10.31579,4.8421 l -0.14035,0 0,-28.14035 -12.42105,0 0,60.35088 z"/>
		<path d="m 805.13762,512.10526 -33.1228,0 0,57.89474 33.1228,0 0,-11.57895 -19.92982,0 0,-11.64912 19.08772,0 0,-11.57895 -19.08772,0 0,-11.50877 19.92982,0 0,-11.57895 z"/>
		<path d="m 817.72203,570 12.42105,0 0,-20.35088 c 0,-3.57894 3.64913,-7.01754 7.36842,-7.01754 4,0 6.45614,3.4386 6.45614,7.01754 l 0,20.35088 12.42106,0 0,-23.7193 c 0,-10.03509 -9.19299,-13.33333 -15.78948,-13.33333 -3.92982,0 -7.50877,2.03509 -10.31579,4.8421 l -0.14035,0 0,-3.78947 -12.42105,0 0,36 z"/>
		<path d="m 867.57183,578.84211 c 3.78948,8.77192 12.42106,10.45614 19.92983,10.45614 12.2807,0 21.19298,-6.24562 21.19298,-18.31579 l 0,-36.98246 -12.42105,0 0,3.22807 -0.21053,0 c -2.94737,-2.73684 -6.80702,-4.2807 -11.57895,-4.2807 -10.52631,0 -17.89473,8.5614 -17.89473,19.08772 0,10.52631 7.36842,19.01754 17.89473,19.01754 4.91228,0 9.12281,-0.70175 11.78948,-3.64912 l 0,2.66667 c 0,6.38596 -5.33334,8.42105 -8.77193,8.42105 -5.40351,0 -8.42106,-2.45614 -9.75439,-4.63158 l -10.17544,4.98246 z m 12.21053,-26.80702 c 0,-4.98246 3.7193,-8.49123 8.42105,-8.49123 4.63158,0 8.35088,3.50877 8.35088,8.49123 0,4.91228 -3.50877,8.42105 -8.35088,8.42105 -5.05263,0 -8.42105,-3.50877 -8.42105,-8.42105 z"/>
		<path d="m 958.16722,553.7193 c 0.0702,-0.42105 0.0702,-1.19298 0.0702,-1.68421 0,-12.63158 -8.35088,-19.08772 -19.29825,-19.08772 -10.87719,0 -19.78947,8.5614 -19.78947,19.08772 0,10.45614 8.91228,19.01754 19.78947,19.01754 8,0 14.59649,-2.59649 18.66667,-9.40351 l -8.98246,-4.49123 c -3.01754,3.22808 -4.77193,4 -8.77193,4 -3.15789,0 -7.78947,-1.89473 -7.78947,-7.43859 l 26.10526,0 z m -25.75438,-6.87719 c 0.21052,-3.29825 2.59649,-5.82457 6.87719,-5.82457 3.64912,0 6.24561,2.03509 6.80702,5.82457 l -13.68421,0 z"/>
		<path d="m 968.96108,570 12.42105,0 0,-60.35088 -12.42105,0 0,60.35088 z"/>
		<path d="m 1010.5806,532.94737 c -9.4737,0 -15.7193,4.21053 -15.7193,11.57895 0,5.4035 3.64912,7.92982 7.2982,9.82456 4.0702,2.10526 8,2.31579 8,4.91228 0,2.38596 -2.1052,2.59649 -3.8596,2.59649 -4,0 -8.91229,-4.14035 -8.91229,-4.14035 l -5.05263,8.49123 c 0,0 5.19298,4.8421 13.89472,4.8421 7.3684,0 17.0526,-1.68421 17.0526,-12.2807 0,-7.36842 -6.1754,-10.03509 -10.9473,-11.50877 -3.0877,-0.98246 -5.6141,-1.54386 -5.6141,-3.4386 0,-1.68421 1.1229,-2.17544 3.8597,-2.17544 3.7895,0 8,2.24562 8,2.24562 l 4.0702,-8.14035 c 0,0 -5.1228,-2.80702 -12.0702,-2.80702 z"/>
	</g>
	<g>
		<path d="m 576.58575,736.75345 -0.58116,2.96809 -7.6174,0 -2.46994,12.61955 q -0.12454,0.7057 -0.18681,1.18309 -0.0623,0.47738 -0.0623,0.74721 0,1.32837 0.78872,1.93029 0.80948,0.60192 2.57372,0.60192 l 3.86059,0 -0.64343,3.1964 -3.65303,0 q -3.40396,0 -5.08518,-1.32837 -1.66047,-1.32838 -1.66047,-4.02664 0,-0.47738 0.0623,-1.03779 0.0623,-0.58116 0.1868,-1.26611 l 2.46995,-12.61955 -3.23792,0 0.60192,-2.96809 3.17565,0 1.28686,-6.60035 3.81908,0 -1.26611,6.60035 7.63815,0 z"/>
		<path d="m 594.24897,740.28195 q -0.58116,-0.31134 -1.32837,-0.47739 -0.74721,-0.16604 -1.5982,-0.16604 -3.05111,0 -5.33425,2.32465 -2.28315,2.3039 -3.03036,6.18524 L 580.61238,760 l -3.81907,0 4.54553,-23.24655 3.81907,0 -0.72645,3.61152 q 1.51518,-2.01332 3.61152,-3.09262 2.11709,-1.0793 4.50401,-1.0793 0.62268,0 1.2246,0.083 0.60192,0.0623 1.20384,0.22831 l -0.72646,3.77757 z"/>
		<path d="M 615.64825,746.73702 613.05377,760 l -3.81908,0 0.7057,-3.52849 q -1.68122,2.07558 -3.83983,3.11337 -2.13785,1.01704 -4.77384,1.01704 -2.96809,0 -4.87763,-1.80576 -1.88878,-1.82651 -1.88878,-4.67006 0,-4.06815 3.23791,-6.43432 3.25867,-2.36616 8.96653,-2.36616 l 5.31349,0 0.20756,-1.01704 q 0.0415,-0.16604 0.0623,-0.35285 0.0208,-0.20756 0.0208,-0.62267 0,-1.84727 -1.51518,-2.86431 -1.49442,-1.03779 -4.21344,-1.03779 -1.86802,0 -3.83983,0.47738 -1.95105,0.47739 -4.02663,1.43216 l 0.66418,-3.5285 q 2.15861,-0.80948 4.21344,-1.20384 2.07559,-0.41511 4.00588,-0.41511 4.10966,0 6.24751,1.785 2.15861,1.785 2.15861,5.18896 0,0.68494 -0.10378,1.61896 -0.10378,0.91325 -0.31134,1.95105 z m -4.13041,1.57744 -3.81908,0 q -4.69082,0 -6.95321,1.26611 -2.24163,1.24535 -2.24163,3.88134 0,1.82651 1.14157,2.86431 1.16233,1.03779 3.1964,1.03779 3.11338,0 5.43803,-2.22088 2.32466,-2.24163 3.07187,-5.97768 l 0.16605,-0.85099 z"/>
		<path d="M 642.56858,745.96905 639.84956,760 l -3.83983,0 2.71902,-13.88566 q 0.1868,-0.97552 0.29058,-1.72273 0.10378,-0.74722 0.10378,-1.18309 0,-1.74349 -1.10006,-2.71901 -1.10006,-0.97553 -3.07187,-0.97553 -3.07186,0 -5.29274,2.05483 -2.22087,2.03407 -2.90581,5.54181 L 624.19966,760 l -3.81908,0 4.50402,-23.24655 3.81907,0 -0.76796,3.65303 q 1.5982,-2.01331 3.83983,-3.11337 2.24163,-1.10006 4.71158,-1.10006 3.07186,0 4.75308,1.66046 1.70198,1.66047 1.70198,4.67007 0,0.74721 -0.10378,1.5982 -0.083,0.85099 -0.26982,1.84727 z"/>
		<path d="m 667.12274,737.4384 -0.72645,3.61151 q -1.51518,-0.83023 -3.1964,-1.24535 -1.68123,-0.41511 -3.46623,-0.41511 -3.0096,0 -4.75309,1.03779 -1.72273,1.01704 -1.72273,2.78128 0,2.05483 4.02663,3.15489 0.31134,0.083 0.45663,0.12454 l 1.2246,0.3736 q 3.81907,1.05855 5.08518,2.22088 1.28686,1.16232 1.28686,3.17564 0,3.69454 -2.94733,6.01919 -2.92657,2.32466 -7.67966,2.32466 -1.84727,0 -3.88135,-0.35285 -2.03407,-0.35285 -4.48326,-1.10006 l 0.74721,-3.94361 q 2.09634,1.0793 4.13042,1.63971 2.03407,0.56041 3.90209,0.56041 2.80204,0 4.54553,-1.20384 1.76425,-1.20384 1.76425,-3.05111 0,-1.99256 -4.6078,-3.21715 l -0.39436,-0.10378 -1.30762,-0.3321 q -2.90581,-0.76796 -4.25494,-2.01331 -1.34913,-1.26611 -1.34913,-3.21716 0,-3.7153 2.78128,-5.89466 2.80204,-2.17936 7.59664,-2.17936 1.88878,0 3.67378,0.31133 1.80576,0.31134 3.54925,0.93402 z"/>
		<path d="m 675.81944,727.70391 3.81908,0 L 673.3495,760 l -3.81908,0 6.28902,-32.29609 z"/>
		<path d="M 702.65674,746.73702 700.06226,760 l -3.81907,0 0.7057,-3.52849 q -1.68123,2.07558 -3.83983,3.11337 -2.13786,1.01704 -4.77385,1.01704 -2.96808,0 -4.87762,-1.80576 -1.88878,-1.82651 -1.88878,-4.67006 0,-4.06815 3.23791,-6.43432 3.25867,-2.36616 8.96652,-2.36616 l 5.3135,0 0.20756,-1.01704 q 0.0415,-0.16604 0.0623,-0.35285 0.0208,-0.20756 0.0208,-0.62267 0,-1.84727 -1.51518,-2.86431 -1.49442,-1.03779 -4.21343,-1.03779 -1.86803,0 -3.83983,0.47738 -1.95105,0.47739 -4.02664,1.43216 l 0.66419,-3.5285 q 2.15861,-0.80948 4.21344,-1.20384 2.07558,-0.41511 4.00587,-0.41511 4.10966,0 6.24751,1.785 2.15861,1.785 2.15861,5.18896 0,0.68494 -0.10378,1.61896 -0.10378,0.91325 -0.31134,1.95105 z m -4.13041,1.57744 -3.81907,0 q -4.69082,0 -6.95321,1.26611 -2.24163,1.24535 -2.24163,3.88134 0,1.82651 1.14157,2.86431 1.16233,1.03779 3.1964,1.03779 3.11338,0 5.43803,-2.22088 2.32465,-2.24163 3.07186,-5.97768 l 0.16605,-0.85099 z"/>
		<path d="m 723.86921,736.75345 -0.58116,2.96809 -7.6174,0 -2.46994,12.61955 q -0.12454,0.7057 -0.1868,1.18309 -0.0623,0.47738 -0.0623,0.74721 0,1.32837 0.78872,1.93029 0.80948,0.60192 2.57373,0.60192 l 3.86058,0 -0.64343,3.1964 -3.65303,0 q -3.40396,0 -5.08518,-1.32837 -1.66047,-1.32838 -1.66047,-4.02664 0,-0.47738 0.0623,-1.03779 0.0623,-0.58116 0.1868,-1.26611 l 2.46995,-12.61955 -3.23791,0 0.60192,-2.96809 3.17564,0 1.28686,-6.60035 3.81908,0 -1.26611,6.60035 7.63815,0 z"/>
		<path d="m 743.02686,746.30114 q 0.0623,-0.33209 0.083,-0.68494 0.0415,-0.35285 0.0415,-0.7057 0,-2.53221 -1.49442,-4.00588 -1.47366,-1.47366 -4.02663,-1.47366 -2.84355,0 -5.02292,1.80576 -2.17936,1.785 -3.30018,5.08518 l 13.71962,-0.0208 z m 3.32093,2.98884 -17.767,0 q -0.12454,0.78873 -0.16605,1.24536 -0.0415,0.45662 -0.0415,0.78872 0,2.88506 1.76425,4.4625 1.785,1.57745 5.02291,1.57745 2.4907,0 4.71158,-0.56041 2.22087,-0.56041 4.13041,-1.63971 l -0.72645,3.77756 q -2.05483,0.83024 -4.25495,1.24535 -2.17936,0.41512 -4.44175,0.41512 -4.83611,0 -7.45135,-2.3039 -2.59448,-2.32465 -2.59448,-6.5796 0,-3.63227 1.28686,-6.74565 1.30762,-3.13413 3.81908,-5.58332 1.61895,-1.53594 3.83983,-2.36617 2.24163,-0.83023 4.75309,-0.83023 3.94361,0 6.26826,2.36616 2.34541,2.36617 2.34541,6.35129 0,0.95477 -0.12453,2.05483 -0.12454,1.0793 -0.37361,2.32465 z"/>
		<path d="m 766.50173,756.51302 q -1.53594,2.01332 -3.63228,3.05111 -2.09634,1.03779 -4.6493,1.03779 -3.48699,0 -5.52106,-2.36617 -2.01332,-2.38692 -2.01332,-6.51733 0,-3.44547 1.2246,-6.55885 1.22459,-3.13413 3.54925,-5.60408 1.53593,-1.63971 3.46622,-2.4907 1.9303,-0.87174 4.04739,-0.87174 2.24163,0 3.94361,1.0793 1.72274,1.0793 2.65675,3.09262 l 2.4907,-12.66106 3.83983,0 L 769.6151,760 l -3.83983,0 0.72646,-3.48698 z m -11.85159,-5.47954 q 0,3.00959 1.34913,4.69082 1.36989,1.68122 3.77756,1.68122 1.78501,0 3.30018,-0.85099 1.53594,-0.87175 2.69826,-2.55297 1.2246,-1.74349 1.9303,-4.02663 0.70569,-2.28315 0.70569,-4.50402 0,-2.88506 -1.36988,-4.50402 -1.34913,-1.61895 -3.73605,-1.61895 -1.80576,0 -3.36245,0.85098 -1.55669,0.85099 -2.65675,2.44919 -1.20384,1.72274 -1.93029,4.00588 -0.7057,2.28315 -0.7057,4.37949 z"/>
		<path d="m 810.29655,745.803 q 0,-3.00959 -1.39064,-4.71157 -1.36989,-1.70198 -3.79832,-1.70198 -1.76425,0 -3.32094,0.87174 -1.53593,0.85099 -2.6775,2.4907 -1.20384,1.72274 -1.90954,4.00588 -0.68494,2.26239 -0.68494,4.52478 0,2.8643 1.34913,4.50401 1.36988,1.61896 3.7568,1.61896 1.80576,0 3.34169,-0.83023 1.53594,-0.85099 2.69826,-2.49071 1.18309,-1.70197 1.90954,-3.96436 0.72646,-2.26239 0.72646,-4.31722 z m -11.87235,-5.52105 q 1.4114,-1.90954 3.5285,-2.98884 2.13785,-1.10006 4.4625,-1.10006 3.57001,0 5.66635,2.40767 2.1171,2.40768 2.1171,6.51734 0,3.36245 -1.24536,6.51733 -1.22459,3.15489 -3.50773,5.60408 -1.49442,1.61896 -3.44547,2.4907 -1.95105,0.87175 -4.0889,0.87175 -2.26239,0 -3.92286,-1.03779 -1.66047,-1.03779 -2.69826,-3.09262 L 794.60513,760 l -3.81908,0 6.28902,-32.29609 3.81908,0 -2.46995,12.57804 z"/>
		<path d="m 826.77668,762.15861 q -2.65675,4.4625 -4.33797,5.56256 -1.66047,1.12082 -4.25495,1.12082 l -3.0096,0 0.64343,-3.1964 2.20012,0 q 1.5982,0 2.71902,-0.87175 1.12081,-0.87174 2.51146,-3.40395 l 1.18308,-2.22088 -5.14745,-22.39556 4.04739,0 3.86059,17.80852 10.6685,-17.80852 4.00588,0 -15.0895,25.40516 z"/>
	</g>
	<g>
		<path d="m 513.1769,780.70175 c -6.22222,0 -12.5848,4.5848 -12.5848,11.78948 0,4.02339 2.71345,7.62573 7.34503,9.91813 4.5848,2.29239 8.70176,3.55555 8.70176,6.36257 0,3.60234 -3.64913,3.78947 -5.56726,3.78947 -4.30409,0 -9.45029,-4.35087 -9.45029,-4.35087 l -4.39766,7.39181 c 0,0 5.47369,5.09941 14.50293,5.09941 7.53216,0 14.5497,-3.22807 14.5497,-12.44444 0,-5.05263 -4.72514,-8.70175 -9.02924,-10.52632 -4.39766,-1.87134 -8.04678,-3.4152 -8.04678,-5.56725 0,-2.10526 1.59064,-3.46199 4.58479,-3.46199 3.97661,0 7.81287,2.66667 7.81287,2.66667 l 3.55556,-7.01754 c 0,0 -4.95907,-3.64913 -11.97661,-3.64913 z"/>
		<path d="m 533.65643,808.02339 c 0,7.01755 4.91228,12.67836 11.92982,12.67836 3.27486,0 6.08187,-1.45029 7.85965,-3.4152 l 0.0936,0 0,2.71345 8.18713,0 0,-24 -8.2807,0 0,2.2924 c -1.96491,-1.91813 -4.63158,-2.99415 -7.85965,-2.99415 -7.01754,0 -11.92982,5.7076 -11.92982,12.72514 z m 8.79532,0 c 0,-3.32164 2.47953,-5.66082 5.61403,-5.66082 3.08772,0 5.56726,2.33918 5.56726,5.66082 0,3.27486 -2.33918,5.61404 -5.56726,5.61404 -3.36842,0 -5.61403,-2.33918 -5.61403,-5.61404 z"/>
		<path d="m 572.36842,820 8.2807,0 0,-14.03509 c 0,-1.91813 1.07602,-4.02339 3.83626,-4.02339 2.94737,0 4.21052,2.10526 4.21052,4.49123 l 0,13.56725 8.2807,0 0,-14.31579 c 0.0936,-1.82456 1.21638,-3.74269 3.83626,-3.74269 2.94737,0 4.21053,2.10526 4.21053,4.49123 l 0,13.56725 8.2807,0 0,-15.81287 c 0,-6.69005 -4.95906,-8.88888 -9.35672,-8.88888 -2.61989,0 -5.42691,1.35672 -7.95322,4.39766 -1.68421,-3.22807 -5.19298,-4.39766 -8.37427,-4.39766 -2.61988,0 -5.00585,1.35672 -6.87719,3.22807 l -0.0936,0 0,-2.52632 -8.2807,0 0,24 z"/>
		<path d="m 631.32529,796 -8.2807,0 0,13.4269 c 0,8.04678 4.02339,11.27485 13.00584,11.27485 8.98246,0 13.00585,-3.22807 13.00585,-11.27485 l 0,-13.4269 -8.2807,0 0,11.4152 c 0,4.72515 -1.26316,6.54971 -4.72515,6.54971 -3.46198,0 -4.72514,-1.82456 -4.72514,-6.54971 l 0,-11.4152 z"/>
		<path d="m 683.58625,809.1462 c 0.0468,-0.2807 0.0468,-0.79532 0.0468,-1.12281 0,-8.42105 -5.56725,-12.72514 -12.8655,-12.72514 -7.25146,0 -13.19298,5.7076 -13.19298,12.72514 0,6.97076 5.94152,12.67836 13.19298,12.67836 5.33333,0 9.73099,-1.73099 12.44444,-6.269 l -5.9883,-2.99415 c -2.0117,2.15204 -3.18129,2.66666 -5.84795,2.66666 -2.10527,0 -5.19299,-1.26315 -5.19299,-4.95906 l 17.40351,0 z m -17.16959,-4.5848 c 0.14035,-2.19883 1.731,-3.88304 4.5848,-3.88304 2.43275,0 4.16374,1.35673 4.53801,3.88304 l -9.12281,0 z"/>
		<path d="m 692.44883,820 8.2807,0 0,-40.23392 -8.2807,0 0,40.23392 z"/>
		<path d="m 761.12792,820 8.79533,0 -3.46199,-38.59649 -9.35673,0 -8.5614,22.269 -8.56141,-22.269 -9.35672,0 -3.46199,38.59649 8.79532,0 1.82456,-22.87719 0.23392,0 7.90644,22.64327 5.23976,0 7.90643,-22.64327 0.23392,0 L 761.12792,820 Z"/>
		<path d="m 776.71565,808.02339 c 0,7.39181 5.80117,12.67836 14.45615,12.67836 8.2807,0 14.31579,-5.28655 14.31579,-12.67836 0,-7.48538 -6.36258,-12.72514 -14.31579,-12.72514 -8.09357,0 -14.45615,5.23976 -14.45615,12.72514 z m 8.79533,0 c 0,-3.32164 2.47953,-5.66082 5.61403,-5.66082 3.08772,0 5.56725,2.33918 5.56725,5.66082 0,3.27486 -2.33918,5.61404 -5.56725,5.61404 -3.36842,0 -5.61403,-2.33918 -5.61403,-5.61404 z"/>
		<path d="m 812.69152,808.02339 c 0,7.39181 5.80117,12.67836 14.45614,12.67836 8.2807,0 14.31579,-5.28655 14.31579,-12.67836 0,-7.48538 -6.36258,-12.72514 -14.31579,-12.72514 -8.09357,0 -14.45614,5.23976 -14.45614,12.72514 z m 8.79532,0 c 0,-3.32164 2.47953,-5.66082 5.61403,-5.66082 3.08772,0 5.56725,2.33918 5.56725,5.66082 0,3.27486 -2.33918,5.61404 -5.56725,5.61404 -3.36842,0 -5.61403,-2.33918 -5.61403,-5.61404 z"/>
		<path d="m 850.30703,820 8.2807,0 0,-12.63158 c 0,-0.60819 0.60819,-4.8655 4.91228,-4.8655 2.76024,0 4.3041,1.30995 4.3041,1.30995 l 3.46199,-7.01755 c 0,0 -2.15205,-1.49707 -5.23977,-1.49707 -4.72515,0 -7.34503,4.16374 -7.34503,4.16374 l -0.0936,0 0,-3.46199 -8.2807,0 0,24 z"/>
		<path d="m 902.70541,809.1462 c 0.0468,-0.2807 0.0468,-0.79532 0.0468,-1.12281 0,-8.42105 -5.56725,-12.72514 -12.86549,-12.72514 -7.25147,0 -13.19299,5.7076 -13.19299,12.72514 0,6.97076 5.94152,12.67836 13.19299,12.67836 5.33333,0 9.73099,-1.73099 12.44444,-6.269 l -5.9883,-2.99415 c -2.0117,2.15204 -3.18129,2.66666 -5.84796,2.66666 -2.10526,0 -5.19298,-1.26315 -5.19298,-4.95906 l 17.40351,0 z m -17.16959,-4.5848 c 0.14035,-2.19883 1.73099,-3.88304 4.58479,-3.88304 2.43275,0 4.16375,1.35673 4.53802,3.88304 l -9.12281,0 z"/>
	</g>
	<g>
		<path d="m 607.63649,905.67847 q 0,-3.05111 -1.32837,-4.67007 -1.32837,-1.61895 -3.81908,-1.61895 -1.70198,0 -3.25866,0.87174 -1.53594,0.87175 -2.73977,2.53222 -1.18309,1.63971 -1.88879,3.96436 -0.7057,2.32466 -0.7057,4.6078 0,2.90582 1.32838,4.48326 1.32837,1.55669 3.77756,1.55669 1.80576,0 3.34169,-0.85099 1.55669,-0.85099 2.65675,-2.46995 1.18308,-1.70197 1.90954,-4.00587 0.72645,-2.3039 0.72645,-4.40024 z m -11.83083,-5.39652 q 1.53593,-2.01332 3.61152,-3.05111 2.09634,-1.03779 4.64931,-1.03779 3.57,0 5.54181,2.34541 1.9718,2.32465 1.9718,6.53809 0,3.44547 -1.22459,6.5796 -1.2246,3.11338 -3.52849,5.58332 -1.53594,1.63971 -3.46623,2.51146 -1.93029,0.85099 -4.06815,0.85099 -2.46994,0 -4.15116,-1.01704 -1.68123,-1.03779 -2.51146,-3.07186 l -2.38692,12.32897 -3.81908,0 6.24751,-32.08854 3.81908,0 -0.68495,3.5285 z"/>
		<path d="m 632.48124,900.28195 q -0.58116,-0.31134 -1.32838,-0.47739 -0.74721,-0.16604 -1.5982,-0.16604 -3.0511,0 -5.33425,2.32465 -2.28314,2.3039 -3.03035,6.18524 L 618.84465,920 l -3.81908,0 4.54553,-23.24655 3.81908,0 -0.72646,3.61152 q 1.51518,-2.01332 3.61152,-3.09262 2.1171,-1.0793 4.50402,-1.0793 0.62267,0 1.22459,0.083 0.60192,0.0623 1.20384,0.22831 l -0.72645,3.77757 z"/>
		<path d="m 651.49359,906.30114 q 0.0623,-0.33209 0.083,-0.68494 0.0415,-0.35285 0.0415,-0.7057 0,-2.53221 -1.49442,-4.00588 -1.47367,-1.47366 -4.02664,-1.47366 -2.84355,0 -5.02291,1.80576 -2.17936,1.785 -3.30018,5.08518 l 13.71961,-0.0208 z m 3.32094,2.98884 -17.76701,0 q -0.12453,0.78873 -0.16604,1.24536 -0.0415,0.45662 -0.0415,0.78872 0,2.88506 1.76424,4.4625 1.78501,1.57745 5.02292,1.57745 2.4907,0 4.71157,-0.56041 2.22088,-0.56041 4.13042,-1.63971 l -0.72646,3.77756 q -2.05483,0.83024 -4.25495,1.24535 -2.17936,0.41512 -4.44175,0.41512 -4.83611,0 -7.45134,-2.3039 -2.59448,-2.32465 -2.59448,-6.5796 0,-3.63227 1.28686,-6.74565 1.30762,-3.13413 3.81907,-5.58332 1.61896,-1.53594 3.83983,-2.36617 2.24164,-0.83023 4.75309,-0.83023 3.94361,0 6.26827,2.36616 2.34541,2.36617 2.34541,6.35129 0,0.95477 -0.12454,2.05483 -0.12453,1.0793 -0.3736,2.32465 z"/>
		<path d="m 677.52142,887.70391 -0.60192,3.17564 -3.65303,0 q -2.07558,0 -3.03035,0.83023 -0.93401,0.80948 -1.39064,2.98885 l -0.41512,2.05482 6.28902,0 -0.56041,2.96809 -6.28902,0 -3.94361,20.27846 -3.83983,0 3.96437,-20.27846 -3.65303,0 0.53965,-2.96809 3.65303,0 0.31134,-1.61895 q 0.78872,-4.10966 2.76052,-5.77013 1.99257,-1.66046 6.24751,-1.66046 l 3.61152,0 z"/>
		<path d="M 694.97708,906.73702 692.3826,920 l -3.81907,0 0.7057,-3.52849 q -1.68123,2.07558 -3.83983,3.11337 -2.13786,1.01704 -4.77385,1.01704 -2.96808,0 -4.87762,-1.80576 -1.88878,-1.82651 -1.88878,-4.67006 0,-4.06815 3.23791,-6.43432 3.25867,-2.36616 8.96652,-2.36616 l 5.3135,0 0.20756,-1.01704 q 0.0415,-0.16604 0.0623,-0.35285 0.0208,-0.20756 0.0208,-0.62267 0,-1.84727 -1.51518,-2.86431 -1.49442,-1.03779 -4.21343,-1.03779 -1.86803,0 -3.83983,0.47738 -1.95105,0.47739 -4.02664,1.43216 l 0.66419,-3.5285 q 2.15861,-0.80948 4.21344,-1.20384 2.07558,-0.41511 4.00587,-0.41511 4.10966,0 6.24751,1.785 2.15861,1.785 2.15861,5.18896 0,0.68494 -0.10378,1.61896 -0.10378,0.91325 -0.31134,1.95105 z m -4.13041,1.57744 -3.81907,0 q -4.69083,0 -6.95321,1.26611 -2.24163,1.24535 -2.24163,3.88134 0,1.82651 1.14157,2.86431 1.16232,1.03779 3.1964,1.03779 3.11337,0 5.43803,-2.22088 2.32465,-2.24163 3.07186,-5.97768 l 0.16605,-0.85099 z"/>
		<path d="m 721.00492,897.64596 -0.76797,3.77756 q -1.36989,-0.99628 -2.92657,-1.49442 -1.53594,-0.49814 -3.1964,-0.49814 -1.82652,0 -3.48699,0.64343 -1.63971,0.64343 -2.76052,1.82651 -1.78501,1.80576 -2.76053,4.2342 -0.97553,2.42843 -0.97553,5.02291 0,3.13413 1.55669,4.67007 1.57745,1.53593 4.77385,1.53593 1.57744,0 3.34169,-0.47739 1.785,-0.47738 3.71529,-1.43215 l -0.72645,3.77756 q -1.66047,0.68495 -3.42472,1.01704 -1.74349,0.35285 -3.59076,0.35285 -4.62855,0 -7.11925,-2.3039 -2.4907,-2.32465 -2.4907,-6.62111 0,-3.61152 1.28686,-6.64187 1.30762,-3.05111 3.86059,-5.47955 1.74349,-1.66046 4.0889,-2.51145 2.34541,-0.85099 5.12669,-0.85099 1.61896,0 3.21716,0.3736 1.5982,0.35285 3.25867,1.07931 z"/>
		<path d="m 742.0721,906.30114 q 0.0623,-0.33209 0.083,-0.68494 0.0415,-0.35285 0.0415,-0.7057 0,-2.53221 -1.49442,-4.00588 -1.47367,-1.47366 -4.02664,-1.47366 -2.84355,0 -5.02291,1.80576 -2.17936,1.785 -3.30018,5.08518 l 13.71961,-0.0208 z m 3.32094,2.98884 -17.767,0 q -0.12454,0.78873 -0.16605,1.24536 -0.0415,0.45662 -0.0415,0.78872 0,2.88506 1.76424,4.4625 1.78501,1.57745 5.02292,1.57745 2.4907,0 4.71157,-0.56041 2.22088,-0.56041 4.13042,-1.63971 l -0.72646,3.77756 q -2.05483,0.83024 -4.25495,1.24535 -2.17936,0.41512 -4.44175,0.41512 -4.83611,0 -7.45134,-2.3039 -2.59448,-2.32465 -2.59448,-6.5796 0,-3.63227 1.28686,-6.74565 1.30762,-3.13413 3.81907,-5.58332 1.61896,-1.53594 3.83983,-2.36617 2.24164,-0.83023 4.75309,-0.83023 3.94361,0 6.26827,2.36616 2.34541,2.36617 2.34541,6.35129 0,0.95477 -0.12454,2.05483 -0.12453,1.0793 -0.3736,2.32465 z"/>
		<path d="m 782.35919,905.803 q 0,-3.00959 -1.39064,-4.71157 -1.36989,-1.70198 -3.79832,-1.70198 -1.76425,0 -3.32094,0.87174 -1.53593,0.85099 -2.6775,2.4907 -1.20384,1.72274 -1.90954,4.00588 -0.68494,2.26239 -0.68494,4.52478 0,2.8643 1.34913,4.50401 1.36988,1.61896 3.7568,1.61896 1.80576,0 3.3417,-0.83023 1.53593,-0.85099 2.69826,-2.49071 1.18308,-1.70197 1.90953,-3.96436 0.72646,-2.26239 0.72646,-4.31722 z m -11.87235,-5.52105 q 1.4114,-1.90954 3.5285,-2.98884 2.13785,-1.10006 4.4625,-1.10006 3.57001,0 5.66635,2.40767 2.1171,2.40768 2.1171,6.51734 0,3.36245 -1.24535,6.51733 -1.2246,3.15489 -3.50774,5.60408 -1.49442,1.61896 -3.44547,2.4907 -1.95105,0.87175 -4.0889,0.87175 -2.26239,0 -3.92286,-1.03779 -1.66047,-1.03779 -2.69826,-3.09262 L 766.66777,920 l -3.81908,0 6.28902,-32.29609 3.81908,0 -2.46995,12.57804 z"/>
		<path d="m 798.83932,922.15861 q -2.65675,4.4625 -4.33797,5.56256 -1.66047,1.12082 -4.25495,1.12082 l -3.0096,0 0.64343,-3.1964 2.20012,0 q 1.5982,0 2.71902,-0.87175 1.12082,-0.87174 2.51146,-3.40395 l 1.18308,-2.22088 -5.14745,-22.39556 4.04739,0 3.86059,17.80852 10.6685,-17.80852 4.00588,0 -15.0895,25.40516 z"/>
	</g>
	<g>
		<path d="m 495.8739,941.40351 -22.31579,0 0,38.59649 8.79532,0 0,-15.48538 12.49123,0 0,-7.7193 -12.49123,0 0,-7.67251 13.52047,0 0,-7.7193 z"/>
		<path d="m 505.05665,980 8.2807,0 0,-12.63158 c 0,-0.60819 0.60819,-4.8655 4.91228,-4.8655 2.76024,0 4.3041,1.30995 4.3041,1.30995 l 3.46198,-7.01755 c 0,0 -2.15204,-1.49707 -5.23976,-1.49707 -4.72515,0 -7.34503,4.16374 -7.34503,4.16374 l -0.0936,0 0,-3.46199 -8.2807,0 0,24 z"/>
		<path d="m 537.70577,941.16959 c -2.71345,0 -4.91228,2.19883 -4.91228,4.91228 0,2.71345 2.19883,4.91228 4.91228,4.91228 2.71345,0 4.91228,-2.19883 4.91228,-4.91228 0,-2.71345 -2.19883,-4.91228 -4.91228,-4.91228 z M 533.44846,956 l 8.2807,0 0,24 -8.2807,0 0,-24 z"/>
		<path d="m 576.89217,969.1462 c 0.0468,-0.2807 0.0468,-0.79532 0.0468,-1.12281 0,-8.42105 -5.56726,-12.72514 -12.8655,-12.72514 -7.25146,0 -13.19298,5.7076 -13.19298,12.72514 0,6.97076 5.94152,12.67836 13.19298,12.67836 5.33333,0 9.73099,-1.73099 12.44444,-6.269 l -5.9883,-2.99415 c -2.0117,2.15204 -3.18129,2.66666 -5.84795,2.66666 -2.10527,0 -5.19299,-1.26315 -5.19299,-4.95906 l 17.40351,0 z m -17.16959,-4.5848 c 0.14035,-2.19883 1.731,-3.88304 4.5848,-3.88304 2.43275,0 4.16374,1.35673 4.53801,3.88304 l -9.12281,0 z"/>
		<path d="m 584.11513,968.02339 c 0,7.01755 4.91228,12.67836 11.92982,12.67836 3.27485,0 6.08187,-1.45029 7.85965,-3.4152 l 0.0936,0 0,2.71345 8.18713,0 0,-40.23392 -8.2807,0 0,18.52632 c -1.96491,-1.91813 -4.63158,-2.99415 -7.85965,-2.99415 -7.01754,0 -11.92982,5.7076 -11.92982,12.72514 z m 8.79532,0 c 0,-3.32164 2.47953,-5.66082 5.61403,-5.66082 3.08772,0 5.56725,2.33918 5.56725,5.66082 0,3.27486 -2.33918,5.61404 -5.56725,5.61404 -3.36842,0 -5.61403,-2.33918 -5.61403,-5.61404 z"/>
		<path d="m 622.82712,980 8.28071,0 0,-12.63158 c 0,-0.60819 0.60818,-4.8655 4.91228,-4.8655 2.76023,0 4.30409,1.30995 4.30409,1.30995 l 3.46199,-7.01755 c 0,0 -2.15205,-1.49707 -5.23977,-1.49707 -4.72514,0 -7.34503,4.16374 -7.34503,4.16374 l -0.0936,0 0,-3.46199 -8.28071,0 0,24 z"/>
		<path d="m 655.47625,941.16959 c -2.71345,0 -4.91228,2.19883 -4.91228,4.91228 0,2.71345 2.19883,4.91228 4.91228,4.91228 2.71345,0 4.91228,-2.19883 4.91228,-4.91228 0,-2.71345 -2.19883,-4.91228 -4.91228,-4.91228 z M 651.21894,956 l 8.2807,0 0,24 -8.2807,0 0,-24 z"/>
		<path d="m 683.15388,962.08187 c 2.47953,0 4.02339,1.12281 4.02339,1.12281 l 2.80702,-5.66082 c 0,0 -2.71345,-2.24561 -8.04679,-2.24561 -6.97076,0 -13.28655,5.7076 -13.28655,12.77193 0,7.01754 6.36258,12.63157 13.28655,12.63157 5.33334,0 8.04679,-2.15204 8.04679,-2.15204 l -2.80702,-5.75439 c 0,0 -1.54386,1.12281 -4.02339,1.12281 -3.1345,0 -5.7076,-2.61988 -5.7076,-5.94152 0,-3.27486 2.5731,-5.89474 5.7076,-5.89474 z"/>
		<path d="m 698.40825,980 8.28071,0 0,-13.56725 c 0,-2.38597 2.43274,-4.67836 4.91228,-4.67836 2.66666,0 4.30409,2.29239 4.30409,4.67836 l 0,13.56725 8.2807,0 0,-15.81287 c 0,-6.69005 -6.12865,-8.88888 -10.52631,-8.88888 -2.61989,0 -5.00585,1.35672 -6.8772,3.22807 l -0.0936,0 0,-18.76024 -8.28071,0 0,40.23392 z"/>
		<path d="m 774.25842,941.40351 -22.08187,0 0,38.59649 22.08187,0 0,-7.7193 -13.28655,0 0,-7.76608 12.72515,0 0,-7.7193 -12.72515,0 0,-7.67251 13.28655,0 0,-7.7193 z"/>
		<path d="m 784.3147,980 8.2807,0 0,-13.56725 c 0,-2.38597 2.43275,-4.67836 4.91229,-4.67836 2.66666,0 4.30409,2.29239 4.30409,4.67836 l 0,13.56725 8.2807,0 0,-15.81287 c 0,-6.69005 -6.12865,-8.88888 -10.52632,-8.88888 -2.61988,0 -5.00584,1.35672 -6.87719,3.22807 l -0.0936,0 0,-2.52632 -8.2807,0 0,24 z"/>
		<path d="m 819.21454,985.89474 c 2.52632,5.84795 8.2807,6.97076 13.28655,6.97076 8.18713,0 14.12865,-4.16375 14.12865,-12.21053 l 0,-24.65497 -8.2807,0 0,2.15205 -0.14035,0 c -1.96491,-1.82457 -4.53801,-2.8538 -7.7193,-2.8538 -7.01754,0 -11.92982,5.7076 -11.92982,12.72514 0,7.01755 4.91228,12.67836 11.92982,12.67836 3.27486,0 6.08188,-0.46783 7.85965,-2.43274 l 0,1.77777 c 0,4.25731 -3.55555,5.61404 -5.84795,5.61404 -3.60234,0 -5.61404,-1.63743 -6.50292,-3.08772 l -6.78363,3.32164 z m 8.14035,-17.87135 c 0,-3.32164 2.47953,-5.66082 5.61404,-5.66082 3.08772,0 5.56725,2.33918 5.56725,5.66082 0,3.27486 -2.33918,5.61404 -5.56725,5.61404 -3.36843,0 -5.61404,-2.33918 -5.61404,-5.61404 z"/>
		<path d="m 881.27814,969.1462 c 0.0468,-0.2807 0.0468,-0.79532 0.0468,-1.12281 0,-8.42105 -5.56725,-12.72514 -12.8655,-12.72514 -7.25146,0 -13.19298,5.7076 -13.19298,12.72514 0,6.97076 5.94152,12.67836 13.19298,12.67836 5.33333,0 9.73099,-1.73099 12.44444,-6.269 l -5.9883,-2.99415 c -2.0117,2.15204 -3.18129,2.66666 -5.84795,2.66666 -2.10527,0 -5.19299,-1.26315 -5.19299,-4.95906 l 17.40351,0 z m -17.16959,-4.5848 c 0.14035,-2.19883 1.731,-3.88304 4.5848,-3.88304 2.43275,0 4.16374,1.35673 4.53801,3.88304 l -9.12281,0 z"/>
		<path d="m 890.14072,980 8.2807,0 0,-40.23392 -8.2807,0 0,40.23392 z"/>
		<path d="m 919.55373,955.29825 c -6.31579,0 -10.47954,2.80701 -10.47954,7.71929 0,3.60234 2.43275,5.28655 4.8655,6.54971 2.71345,1.40351 5.33333,1.54386 5.33333,3.27486 0,1.59064 -1.4035,1.73099 -2.5731,1.73099 -2.66666,0 -5.94152,-2.76023 -5.94152,-2.76023 l -3.36842,5.66081 c 0,0 3.46199,3.22807 9.26316,3.22807 4.91228,0 11.36842,-1.1228 11.36842,-8.18713 0,-4.91228 -4.11696,-6.69006 -7.29824,-7.67252 -2.05848,-0.65497 -3.74269,-1.02923 -3.74269,-2.29239 0,-1.12281 0.74853,-1.4503 2.5731,-1.4503 2.52631,0 5.33333,1.49708 5.33333,1.49708 l 2.71345,-5.4269 c 0,0 -3.41521,-1.87134 -8.04678,-1.87134 z"/>
	</g>
</svg>
